<svg width="12" height="11" viewBox="0 0 12 11" fill="none" xmlns="http://www.w3.org/2000/svg">
<path d="M11.9992 1.11958C11.9992 0.905459 11.9367 0.695827 11.8191 0.515539C11.7015 0.335252 11.5337 0.191873 11.3356 0.102406C11.1375 0.0129398 10.9175 -0.0188607 10.7016 0.0107756C10.4857 0.040412 10.2829 0.130242 10.1174 0.269613L6.04062 3.70203C6.02219 3.71749 5.99883 3.72612 5.9746 3.72642C5.95037 3.72672 5.9268 3.71867 5.90799 3.70366L1.85438 0.495944C1.68685 0.363548 1.48461 0.280395 1.271 0.256089C1.0574 0.231783 0.841156 0.267314 0.647241 0.35858C0.453326 0.449845 0.289653 0.593122 0.175124 0.771863C0.0605956 0.950603 -0.000116823 1.15752 1.68761e-07 1.3687V9.87974C1.643e-07 10.0267 0.0294825 10.1723 0.0867637 10.3081C0.144045 10.444 0.228004 10.5674 0.333846 10.6713C0.439688 10.7753 0.56534 10.8577 0.703629 10.914C0.841918 10.9702 0.990135 10.9992 1.13982 10.9992C1.2895 10.9992 1.43772 10.9702 1.57601 10.914C1.7143 10.8577 1.83995 10.7753 1.94579 10.6713C2.05163 10.5674 2.13559 10.444 2.19287 10.3081C2.25015 10.1723 2.27964 10.0267 2.27964 9.87974V3.92022C2.27964 3.83474 2.37994 3.7867 2.44791 3.84044L5.28461 6.08421C5.49183 6.24806 5.75089 6.33555 6.01689 6.33154C6.28289 6.32752 6.53909 6.23225 6.74109 6.06223L9.5496 3.69715C9.56466 3.68457 9.58307 3.67648 9.60265 3.67384C9.62224 3.6712 9.64219 3.67411 9.66014 3.68224C9.67809 3.69038 9.6933 3.70338 9.70397 3.71973C9.71464 3.73607 9.72033 3.75508 9.72036 3.77449V9.88056C9.72036 10.1775 9.84045 10.4622 10.0542 10.6721C10.268 10.8821 10.5579 11 10.8602 11C11.1625 11 11.4524 10.8821 11.6662 10.6721C11.8799 10.4622 12 10.1775 12 9.88056V1.11876L11.9992 1.11958Z" fill="#212121"/>
</svg>
