<svg width="18" height="16" viewBox="0 0 18 16" fill="none" xmlns="http://www.w3.org/2000/svg">
<path fill-rule="evenodd" clip-rule="evenodd" d="M4.3125 5.98486C4.3125 4.74166 4.80636 3.54938 5.68544 2.6703C6.56451 1.79122 7.7568 1.29736 9 1.29736C10.2432 1.29736 11.4355 1.79122 12.3146 2.6703C13.1936 3.54938 13.6875 4.74166 13.6875 5.98486C13.6875 6.73799 13.4469 7.59486 13.1038 8.43986C12.7569 9.29236 12.29 10.1692 11.8038 10.9742C11.36 11.7079 10.8787 12.4182 10.3619 13.1024C9.93187 13.668 9.53938 14.1224 9.2925 14.3192C9.20944 14.3856 9.1063 14.4217 9 14.4217C8.8937 14.4217 8.79056 14.3856 8.7075 14.3192C8.46062 14.1224 8.06813 13.668 7.63812 13.1024C7.12146 12.4182 6.64041 11.7079 6.19687 10.9742C5.70937 10.1692 5.24312 9.29236 4.89687 8.43924C4.55312 7.59486 4.3125 6.73799 4.3125 5.98486ZM9 8.01549C9.53872 8.01549 10.0554 7.80148 10.4363 7.42055C10.8172 7.03962 11.0312 6.52296 11.0312 5.98424C11.0312 5.44552 10.8172 4.92886 10.4363 4.54793C10.0554 4.16699 9.53872 3.95299 9 3.95299C8.46128 3.95299 7.94462 4.16699 7.56369 4.54793C7.18276 4.92886 6.96875 5.44552 6.96875 5.98424C6.96875 6.52296 7.18276 7.03962 7.56369 7.42055C7.94462 7.80148 8.46128 8.01549 9 8.01549Z" fill="white"/>
</svg>
