<svg width="8" height="10" viewBox="0 0 8 10" fill="none" xmlns="http://www.w3.org/2000/svg">
<path d="M6.77902 7.50753H4.03199C3.2227 7.50753 2.46939 6.66311 2.46939 5.70203V5.00515H6.74626C7.07814 5.00565 7.39663 4.87422 7.63173 4.63974C7.86683 4.40526 7.99929 4.08693 8 3.75472C7.9996 3.42244 7.86737 3.10393 7.6324 2.86923C7.39744 2.63452 7.07896 2.50284 6.74702 2.50314H2.46901V1.26682C2.46901 0.567268 1.94497 0 1.25298 0C0.561363 0 0 0.567268 0 1.26682V5.70165C0 8.0767 1.78425 10 3.98972 10H6.7356C7.42873 10 8 9.44226 8 8.74271C8 8.04316 7.47139 7.50753 6.77902 7.50753Z" fill="#212121"/>
</svg>

